# xmcd
#
# Track frame offsets:
#	150
#	23807
#	43670
#	54895
#	66977
#	79982
#	89470
#	114960
#	130682
#	156542
#	179677
#	207125
#	237160
#
# Disc length: 3458 seconds
#
# Revision: 0
# Processed by: cddbd v1.4b41PL3 Copyright (c) Steve Scherf et al.
# Submitted via: EZCDDA 4.3.3.2
#
DISCID=ae0d800d
DTITLE=John Lee Hooker - Tantalizing with the blues
DYEAR=1900
DGENRE=
TTITLE0=It serves me right to suffer 
TTITLE1=Shake it Baby
TTITLE2=Bottle up and go
TTITLE3=Cry before I go
TTITLE4=Backbiters and syndicaters
TTITLE5=Think twice before you go
TTITLE6=I don't wanna go to Vietnam
TTITLE7=Mini skirts
TTITLE8=Mean mean woman
TTITLE9=Tantalizing with the blues
TTITLE10=I'm just a drifter
TTITLE11=Kick hit 4 hit kix U
TTITLE12=I'll never get out of these blues alive
EXTD=
EXTT0=
EXTT1=
EXTT2=
EXTT3=
EXTT4=
EXTT5=
EXTT6=
EXTT7=
EXTT8=
EXTT9=
EXTT10=
EXTT11=
EXTT12=
PLAYORDER=
